<svg xmlns="http://www.w3.org/2000/svg" xmlns:xlink="http://www.w3.org/1999/xlink" width="60" height="60" viewBox="0 0 60 60"><defs><clipPath id="clip-path"><rect id="Rectangle_359" data-name="Rectangle 359" width="60" height="60" transform="translate(0 0)" fill="none"></rect></clipPath></defs><g id="Facebook_logo" data-name="Facebook logo" transform="translate(0 0)"><g id="Group_401" data-name="Group 401" transform="translate(0 0)" clip-path="url(#clip-path)"><path id="Path_361" data-name="Path 361" d="M60.068,30.034A30.034,30.034,0,1,0,25.341,59.7V38.716H17.715V30.034h7.626V23.417c0-7.527,4.484-11.685,11.344-11.685a46.186,46.186,0,0,1,6.723.587V19.71H39.622c-3.731,0-4.894,2.315-4.894,4.69v5.634h8.33l-1.332,8.682h-7V59.7A30.041,30.041,0,0,0,60.068,30.034" transform="translate(0.104 0.245)" fill="#1877f2"></path><path id="Path_362" data-name="Path 362" d="M326.01,226.984l1.332-8.682h-8.33v-5.634c0-2.375,1.164-4.69,4.894-4.69h3.787v-7.391A46.184,46.184,0,0,0,320.97,200c-6.86,0-11.344,4.158-11.344,11.685V218.3H302v8.682h7.626v20.987a30.351,30.351,0,0,0,9.386,0V226.984Z" transform="translate(-284.18 -188.023)" fill="#fff"></path></g></g></svg>