<svg id="Google_Ads_logo" data-name="Google Ads logo" xmlns="http://www.w3.org/2000/svg" width="65.536" height="59.75" viewBox="0 0 65.536 59.75">
  <g id="Group_393" data-name="Group 393" transform="translate(0 0)">
    <g id="Group_402" data-name="Group 402">
      <path id="Path_340" data-name="Path 340" d="M5.658,59.89h0A10.964,10.964,0,0,1,1.6,44.881L23.526,7.253A11.179,11.179,0,0,1,38.674,3.232h0A10.964,10.964,0,0,1,42.733,18.24L20.807,55.868A11.179,11.179,0,0,1,5.658,59.89" transform="translate(-0.11 -1.603)" fill="#fbbd04"/>
      <path id="Path_341" data-name="Path 341" d="M275.364,58.122h0A11.179,11.179,0,0,1,260.215,54.1L238.288,16.472a10.964,10.964,0,0,1,4.059-15.009A11.179,11.179,0,0,1,257.5,5.485l21.927,37.628a10.964,10.964,0,0,1-4.059,15.009" transform="translate(-215.365 0)" fill="#438edc"/>
      <path id="Path_342" data-name="Path 342" d="M22.486,417.291a11.243,11.243,0,1,1-11.243-11.243,11.243,11.243,0,0,1,11.243,11.243" transform="translate(0 -368.785)" fill="#34a952"/>
    </g>
  </g>
</svg>
