<svg xmlns="http://www.w3.org/2000/svg" xmlns:xlink="http://www.w3.org/1999/xlink" id="Pinterest_logo" data-name="Pinterest logo" width="60" height="60" viewBox="0 0 60 60"><defs><clipPath id="clip-path"><rect id="Rectangle_363" data-name="Rectangle 363" width="60" height="60" fill="none"></rect></clipPath></defs><g id="Group_410" data-name="Group 410" clip-path="url(#clip-path)"><path id="Path_367" data-name="Path 367" d="M29.876,0A29.876,29.876,0,0,0,17.883,57.239a26.242,26.242,0,0,1,.52-6.86c.574-2.425,3.844-16.279,3.844-16.279a11.476,11.476,0,0,1-.954-4.727c0-4.427,2.566-7.734,5.762-7.734,2.717,0,4.03,2.041,4.03,4.485,0,2.732-1.742,6.818-2.638,10.6a4.624,4.624,0,0,0,4.715,5.754c5.661,0,9.473-7.27,9.473-15.884,0-6.548-4.41-11.449-12.431-11.449-9.062,0-14.708,6.758-14.708,14.307a8.624,8.624,0,0,0,1.969,5.86,1.448,1.448,0,0,1,.429,1.665c-.143.55-.472,1.873-.609,2.4a1.029,1.029,0,0,1-1.5.748c-4.174-1.7-6.118-6.275-6.118-11.414,0-8.486,7.158-18.663,21.352-18.663,11.406,0,18.913,8.254,18.913,17.114,0,11.72-6.515,20.475-16.12,20.475-3.225,0-6.259-1.744-7.3-3.724,0,0-1.734,6.883-2.1,8.212a25.005,25.005,0,0,1-3.007,6.4A29.875,29.875,0,1,0,29.876,0" transform="translate(-0.198 0.333)" fill="#bc061b"></path></g></svg>