<svg xmlns="http://www.w3.org/2000/svg" xmlns:xlink="http://www.w3.org/1999/xlink" id="Youtube_logo" data-name="Youtube logo" width="71.131" height="49.792" viewBox="0 0 71.131 49.792"><defs><clipPath id="clip-path"><rect id="Rectangle_364" data-name="Rectangle 364" width="71.131" height="49.792" fill="none"></rect></clipPath></defs><g id="Group_412" data-name="Group 412" transform="translate(0 0)" clip-path="url(#clip-path)"><path id="Path_368" data-name="Path 368" d="M69.645,7.775a8.908,8.908,0,0,0-6.289-6.288C57.808,0,35.565,0,35.565,0S13.322,0,7.775,1.487A8.908,8.908,0,0,0,1.486,7.775C0,13.322,0,24.9,0,24.9s0,11.573,1.486,17.12a8.909,8.909,0,0,0,6.289,6.289c5.547,1.486,27.79,1.486,27.79,1.486s22.243,0,27.79-1.486a8.909,8.909,0,0,0,6.289-6.289c1.487-5.547,1.487-17.12,1.487-17.12s0-11.574-1.487-17.121" transform="translate(0 0)" fill="red"></path><path id="Path_369" data-name="Path 369" d="M48.594,45.636,67.073,34.967,48.594,24.3Z" transform="translate(-20.141 -10.071)" fill="#fff"></path></g></svg>